<svg width="130.000000" height="28.000000" viewBox="0 0 130 28" fill="none" xmlns="http://www.w3.org/2000/svg" xmlns:xlink="http://www.w3.org/1999/xlink">
	<desc>
			Created with Pixso.
	</desc>
	<defs>
		<clipPath id="clip7_454">
			<rect rx="0.000000" width="26.956091" height="27.000000" transform="translate(0.500000 0.500000)" fill="white" fill-opacity="0"/>
		</clipPath>
	</defs>
	<path d="M125.78 21.06C124.82 21.06 123.98 20.84 123.27 20.39C122.56 19.93 122.02 19.3 121.63 18.5C121.24 17.69 121.05 16.76 121.05 15.71C121.05 14.66 121.24 13.73 121.63 12.92C122.02 12.1 122.55 11.46 123.23 11C123.91 10.54 124.71 10.31 125.6 10.31C126.17 10.31 126.71 10.41 127.23 10.62C127.75 10.82 128.22 11.13 128.64 11.56C129.06 11.98 129.39 12.51 129.63 13.15C129.87 13.79 130 14.54 130 15.41L130 16.01L121.88 16.01L121.88 14.94L128.77 14.94C128.77 14.27 128.63 13.67 128.36 13.14C128.09 12.6 127.72 12.18 127.24 11.87C126.77 11.56 126.22 11.4 125.6 11.4C124.94 11.4 124.37 11.58 123.86 11.93C123.36 12.28 122.97 12.75 122.69 13.32C122.41 13.9 122.27 14.53 122.26 15.22L122.26 15.86C122.26 16.68 122.4 17.4 122.69 18.02C122.98 18.64 123.39 19.11 123.91 19.45C124.44 19.79 125.06 19.96 125.78 19.96C126.28 19.96 126.71 19.88 127.08 19.73C127.45 19.58 127.76 19.37 128.02 19.11C128.27 18.85 128.47 18.56 128.6 18.25L129.74 18.63C129.58 19.06 129.32 19.47 128.96 19.84C128.61 20.21 128.16 20.51 127.62 20.73C127.09 20.95 126.48 21.06 125.78 21.06Z" fill="#0044F0" fill-opacity="1.000000" fill-rule="nonzero"/>
	<path d="M118.4 6.98L118.4 20.85L117.2 20.85L117.2 6.98L118.4 6.98Z" fill="#0044F0" fill-opacity="1.000000" fill-rule="nonzero"/>
	<path d="M105.79 24.75L105.79 10.45L106.96 10.45L106.96 12.43L107.1 12.43C107.24 12.12 107.44 11.8 107.69 11.48C107.95 11.15 108.28 10.87 108.69 10.64C109.11 10.42 109.64 10.31 110.28 10.31C111.13 10.31 111.88 10.53 112.52 10.98C113.16 11.43 113.66 12.06 114.02 12.86C114.38 13.67 114.56 14.6 114.56 15.67C114.56 16.75 114.38 17.69 114.02 18.5C113.66 19.3 113.16 19.93 112.52 20.39C111.88 20.84 111.14 21.06 110.29 21.06C109.66 21.06 109.14 20.95 108.71 20.72C108.3 20.5 107.95 20.22 107.69 19.89C107.44 19.56 107.24 19.23 107.1 18.92L106.99 18.92L106.99 24.75L105.79 24.75ZM106.98 15.65C106.98 16.49 107.1 17.24 107.35 17.89C107.6 18.53 107.96 19.04 108.43 19.41C108.9 19.78 109.48 19.96 110.15 19.96C110.84 19.96 111.42 19.77 111.89 19.39C112.37 19.01 112.73 18.49 112.98 17.84C113.23 17.19 113.36 16.46 113.36 15.65C113.36 14.85 113.23 14.13 112.99 13.49C112.74 12.85 112.38 12.35 111.9 11.97C111.43 11.59 110.84 11.4 110.15 11.4C109.47 11.4 108.9 11.59 108.42 11.95C107.95 12.31 107.59 12.81 107.34 13.45C107.1 14.09 106.98 14.82 106.98 15.65Z" fill="#0044F0" fill-opacity="1.000000" fill-rule="nonzero"/>
	<path d="M98.58 21.06C97.68 21.06 96.89 20.83 96.2 20.38C95.51 19.92 94.98 19.29 94.59 18.49C94.2 17.68 94.01 16.75 94.01 15.69C94.01 14.63 94.2 13.69 94.59 12.88C94.98 12.07 95.51 11.44 96.2 10.99C96.89 10.53 97.68 10.31 98.58 10.31C99.47 10.31 100.26 10.53 100.95 10.99C101.63 11.45 102.17 12.08 102.56 12.88C102.95 13.69 103.15 14.63 103.15 15.69C103.15 16.75 102.95 17.68 102.56 18.49C102.18 19.29 101.64 19.92 100.95 20.38C100.26 20.83 99.47 21.06 98.58 21.06ZM98.58 19.96C99.3 19.96 99.91 19.77 100.41 19.38C100.91 18.99 101.29 18.47 101.54 17.83C101.81 17.18 101.94 16.47 101.94 15.69C101.94 14.92 101.81 14.2 101.54 13.55C101.29 12.91 100.91 12.38 100.41 11.99C99.91 11.6 99.3 11.4 98.58 11.4C97.86 11.4 97.25 11.6 96.74 11.99C96.24 12.38 95.86 12.91 95.6 13.55C95.34 14.2 95.22 14.92 95.22 15.69C95.22 16.47 95.34 17.18 95.6 17.83C95.86 18.47 96.24 18.99 96.74 19.38C97.24 19.77 97.86 19.96 98.58 19.96Z" fill="#0044F0" fill-opacity="1.000000" fill-rule="nonzero"/>
	<path d="M87.68 21.06C86.71 21.06 85.87 20.84 85.16 20.39C84.46 19.93 83.91 19.3 83.52 18.5C83.14 17.69 82.95 16.76 82.95 15.71C82.95 14.66 83.14 13.73 83.52 12.92C83.91 12.1 84.44 11.46 85.12 11C85.81 10.54 86.6 10.31 87.5 10.31C88.06 10.31 88.6 10.41 89.12 10.62C89.65 10.82 90.12 11.13 90.53 11.56C90.95 11.98 91.28 12.51 91.52 13.15C91.77 13.79 91.89 14.54 91.89 15.41L91.89 16.01L83.78 16.01L83.78 14.94L90.66 14.94C90.66 14.27 90.52 13.67 90.25 13.14C89.99 12.6 89.62 12.18 89.14 11.87C88.67 11.56 88.12 11.4 87.5 11.4C86.84 11.4 86.26 11.58 85.76 11.93C85.26 12.28 84.87 12.75 84.58 13.32C84.3 13.9 84.16 14.53 84.16 15.22L84.16 15.86C84.16 16.68 84.3 17.4 84.58 18.02C84.87 18.64 85.28 19.11 85.81 19.45C86.33 19.79 86.96 19.96 87.68 19.96C88.17 19.96 88.6 19.88 88.97 19.73C89.34 19.58 89.66 19.37 89.91 19.11C90.17 18.85 90.36 18.56 90.49 18.25L91.63 18.63C91.48 19.06 91.22 19.47 90.86 19.84C90.5 20.21 90.05 20.51 89.52 20.73C88.99 20.95 88.37 21.06 87.68 21.06Z" fill="#0044F0" fill-opacity="1.000000" fill-rule="nonzero"/>
	<path d="M71.95 20.85L71.95 6.98L76.41 6.98C77.4 6.98 78.22 7.17 78.87 7.55C79.54 7.92 80.04 8.43 80.37 9.08C80.71 9.73 80.87 10.45 80.87 11.26C80.87 12.07 80.71 12.8 80.37 13.45C80.04 14.09 79.55 14.6 78.89 14.98C78.23 15.36 77.41 15.55 76.43 15.55L72.92 15.55L72.92 14.41L76.4 14.41C77.13 14.41 77.73 14.27 78.21 14C78.68 13.73 79.04 13.35 79.27 12.88C79.51 12.4 79.63 11.86 79.63 11.26C79.63 10.66 79.51 10.12 79.27 9.64C79.04 9.17 78.68 8.8 78.2 8.53C77.72 8.25 77.12 8.12 76.38 8.12L73.21 8.12L73.21 20.85L71.95 20.85Z" fill="#0044F0" fill-opacity="1.000000" fill-rule="nonzero"/>
	<path d="M65.43 6.98L65.43 20.85L61.67 20.85L61.67 6.98L65.43 6.98Z" fill="#0044F0" fill-opacity="1.000000" fill-rule="nonzero"/>
	<path d="M48.06 20.85L48.06 6.98L51.82 6.98L51.82 12.59L52.01 12.59L56.17 6.98L60.55 6.98L55.88 13.16L60.66 20.85L56.17 20.85L53.07 15.65L51.82 17.27L51.82 20.85L48.06 20.85Z" fill="#0044F0" fill-opacity="1.000000" fill-rule="nonzero"/>
	<path d="M42.85 11.31C42.81 10.86 42.64 10.51 42.34 10.26C42.04 10.01 41.59 9.88 40.98 9.88C40.6 9.88 40.28 9.93 40.03 10.02C39.79 10.11 39.61 10.24 39.49 10.39C39.37 10.55 39.31 10.73 39.31 10.94C39.3 11.1 39.33 11.25 39.39 11.39C39.47 11.52 39.58 11.64 39.73 11.75C39.89 11.85 40.08 11.95 40.32 12.03C40.56 12.12 40.84 12.19 41.17 12.26L42.31 12.51C43.07 12.67 43.73 12.88 44.28 13.15C44.82 13.42 45.27 13.73 45.61 14.09C45.96 14.45 46.21 14.85 46.38 15.29C46.54 15.74 46.63 16.23 46.63 16.76C46.63 17.67 46.4 18.44 45.95 19.07C45.5 19.7 44.86 20.18 44.02 20.51C43.18 20.84 42.18 21.01 41.01 21.01C39.81 21.01 38.76 20.83 37.86 20.47C36.97 20.12 36.27 19.57 35.78 18.83C35.29 18.08 35.04 17.13 35.04 15.97L38.6 15.97C38.63 16.4 38.73 16.75 38.92 17.04C39.11 17.33 39.38 17.55 39.72 17.7C40.07 17.85 40.48 17.92 40.96 17.92C41.36 17.92 41.69 17.87 41.96 17.77C42.23 17.67 42.44 17.54 42.58 17.36C42.72 17.18 42.79 16.98 42.79 16.76C42.79 16.54 42.72 16.36 42.58 16.2C42.45 16.04 42.24 15.9 41.94 15.77C41.63 15.64 41.23 15.52 40.71 15.4L39.33 15.11C38.11 14.84 37.14 14.39 36.43 13.77C35.73 13.14 35.38 12.29 35.39 11.21C35.38 10.33 35.62 9.56 36.09 8.9C36.57 8.23 37.23 7.72 38.07 7.35C38.92 6.98 39.89 6.79 40.98 6.79C42.1 6.79 43.07 6.98 43.88 7.35C44.7 7.73 45.33 8.26 45.77 8.94C46.21 9.61 46.44 10.41 46.44 11.31L42.85 11.31Z" fill="#0044F0" fill-opacity="1.000000" fill-rule="nonzero"/>
	<rect rx="0.000000" width="26.956091" height="27.000000" transform="translate(0.500000 0.500000)" fill="#FFFFFF" fill-opacity="0"/>
	<g clip-path="url(#clip7_454)">
		<path d="M3.05 13.86L21.98 25.92L21.98 25.92C22.17 26.03 22.33 26.09 22.48 26.06C22.64 26.03 22.79 25.92 22.93 25.78C23.15 25.58 23.5 25.58 23.71 25.81C23.92 26.03 23.91 26.38 23.69 26.59C23.37 26.89 23.03 27.09 22.66 27.15C22.28 27.21 21.86 27.15 21.4 26.85L21.39 26.85L2.45 14.79C2.45 14.79 2.45 14.79 2.45 14.79L2.45 14.79C1.99 14.49 1.75 14.13 1.65 13.76C1.55 13.4 1.59 13.01 1.73 12.59C1.83 12.3 2.14 12.14 2.43 12.24C2.71 12.34 2.87 12.65 2.77 12.94C2.71 13.13 2.67 13.31 2.71 13.47C2.75 13.62 2.87 13.74 3.05 13.86ZM22.29 1.06C23.67 1.68 24.3 3.31 23.67 4.7C23.05 6.09 21.42 6.71 20.04 6.09C18.65 5.47 18.03 3.84 18.65 2.45C19.27 1.06 20.9 0.44 22.29 1.06ZM13.76 10.58L15.11 7.56C15.16 7.43 15.18 7.29 15.15 7.15C15.11 7.01 15.04 6.89 14.93 6.8L12.01 4.4C11.42 3.92 11.21 3.52 11.45 2.97L11.47 2.93C11.71 2.38 12.23 1.97 12.9 2.37C12.9 2.37 15.66 4.39 16.41 4.99C16.54 5.09 16.67 5.17 16.82 5.24C17.72 5.64 21.02 7.29 22.11 7.78C22.34 7.88 22.55 8.02 22.73 8.2L25.73 11.07C26.17 11.5 26.52 11.96 26.27 12.5L26.25 12.55C26 13.09 25.34 13.51 24.81 13.09L21.76 10.1C21.74 10.08 21.71 10.07 21.69 10.06C21.66 10.05 21.63 10.05 21.61 10.05C21.58 10.06 21.56 10.07 21.53 10.09C21.51 10.1 21.5 10.13 21.49 10.15L19.72 14.09L22.55 18C22.71 18.23 22.79 18.5 22.78 18.77C22.77 19.04 22.66 19.31 22.48 19.51L20.08 22.29C19.89 22.51 19.62 22.65 19.33 22.67C19.03 22.69 18.74 22.6 18.52 22.41C18.06 22.01 18.01 21.31 18.41 20.84L19.8 19.23C19.85 19.18 19.88 19.11 19.88 19.04C19.88 18.97 19.86 18.9 19.82 18.84L18.7 17.3C16.87 14.77 14.33 13.76 12.41 13.08L10.13 12.64C10.06 12.62 9.99 12.63 9.92 12.67C9.86 12.7 9.81 12.75 9.78 12.81L8.91 14.76C8.66 15.32 8.01 15.57 7.45 15.32C7.18 15.2 6.98 14.98 6.87 14.71C6.77 14.43 6.78 14.13 6.9 13.86C7.33 12.89 7.98 11.43 8.4 10.51C8.51 10.25 8.7 10.05 8.94 9.92C9.19 9.8 9.46 9.76 9.73 9.81L13.76 10.58Z" fill="#0044F0" fill-opacity="1.000000" fill-rule="evenodd"/>
	</g>
</svg>
